# xmcd
#
# Track frame offsets:
# 150
# 14255
# 26680
# 41162
# 59045
# 74677
# 94187
# 108170
# 123700
# 137680
# 149572
# 160617
#
# Disc length: 2311 seconds
#
#
# Revision: 0
# Processed by: cddbd v1.5.2PL0 Copyright (c) Steve Scherf et al.
# Submitted via: FreeRIP 2.951 
#
DISCID=b309050c
DTITLE=Rui Biriba - De bem com a vida
DYEAR=1995
DGENRE=Fandango
TTITLE0=chamamé do amor
TTITLE1=deixa disso
TTITLE2=mama de santana
TTITLE3=bem-te-vi
TTITLE4=reboleando as maçaroca
TTITLE5=castelhana
TTITLE6=dia de alegria
TTITLE7=cobra mandada
TTITLE8=a gorda
TTITLE9=quem chora comigo
TTITLE10=me diz vaneira
TTITLE11=xote do paraná
EXTD=oexpert
EXTT0=
EXTT1=
EXTT2=
EXTT3=
EXTT4=
EXTT5=
EXTT6=
EXTT7=
EXTT8=
EXTT9=
EXTT10=
EXTT11=
PLAYORDER=
